<?xml version="1.0" standalone="no"?><!DOCTYPE svg PUBLIC "-//W3C//DTD SVG 1.1//EN" "http://www.w3.org/Graphics/SVG/1.1/DTD/svg11.dtd"><svg t="1711443468076" class="icon" viewBox="0 0 1024 1024" version="1.1" xmlns="http://www.w3.org/2000/svg" p-id="8199" xmlns:xlink="http://www.w3.org/1999/xlink" width="200" height="200"><path d="M426.304 789.376v4.992a141.824 141.824 0 0 1-134.4 131.648c-73.216 6.4-130.112-33.216-130.112-100.608s63.296-109.12 139.392-115.2a91.264 91.264 0 0 0 65.344-30.848V217.728a59.136 59.136 0 0 1 48.256-58.112l369.6-66.56a59.136 59.136 0 0 1 70.016 58.112v577.088a141.824 141.824 0 0 1-134.4 131.648c-73.216 6.4-130.112-33.216-130.112-100.608s63.296-109.12 139.392-115.2a91.264 91.264 0 0 0 65.856-31.36V336.768c0-1.6 0-32.768-0.384-34.368-4.224 0.96-17.856 2.56-33.984 5.184l-310.08 48.512a329.152 329.152 0 0 1-24.768 3.712z m0-484.16l358.4-64.512a59.52 59.52 0 0 1 10.88-1.024v-51.2a29.568 29.568 0 0 0-34.368-29.184l-310.08 48.512a29.568 29.568 0 0 0-24.768 29.184z" fill="#d81e06" p-id="8200"></path></svg>